<?xml version="1.0" encoding="utf-8"?>
<!-- Generator: Adobe Illustrator 25.2.0, SVG Export Plug-In . SVG Version: 6.00 Build 0)  -->
<svg version="1.1" id="Layer_1" xmlns="http://www.w3.org/2000/svg" xmlns:xlink="http://www.w3.org/1999/xlink" x="0px" y="0px"
	 viewBox="0 0 154.3 31" style="enable-background:new 0 0 154.3 31;" xml:space="preserve">
<style type="text/css">
	.st0{fill:#333333;}
	.st1{fill:#7E9CBE;}
</style>
<g>
	<g>
		<path class="st0" d="M21.5,11.8c0,4.8-3.9,8.7-8.9,8.7H8.8v8H3V3h9.6C17.6,3,21.5,6.9,21.5,11.8z M15.7,11.8
			c0-1.9-1.3-3.3-3.1-3.3H8.8V15h3.8C14.4,15,15.7,13.6,15.7,11.8z"/>
		<path class="st0" d="M22.3,19.4c0-5.4,4.3-9.6,9.6-9.6s9.6,4.2,9.6,9.6S37.2,29,31.9,29S22.3,24.8,22.3,19.4z M36.1,19.4
			c0-2.6-1.8-4.3-4.2-4.3s-4.2,1.7-4.2,4.3s1.8,4.3,4.2,4.3S36.1,22,36.1,19.4z"/>
		<path class="st0" d="M55.6,9.9v6.2c-2.3-0.4-5.5,0.5-5.5,4.1v8.2h-5.5V10.3h5.5v3.2C50.8,11.1,53.3,9.9,55.6,9.9z"/>
		<path class="st0" d="M65.6,15.6V22c0,1.6,1.3,1.7,3.7,1.6v4.9c-7.1,0.7-9.2-1.4-9.2-6.5v-6.4h-2.9v-5.2h2.9V6.9l5.5-1.6v5.1h3.7
			v5.2C69.3,15.6,65.6,15.6,65.6,15.6z"/>
		<path class="st0" d="M78.1,10.3h3.4v5.2h-3.4v13h-5.5v-13h-2.4v-5.2h2.4c0-5.1,2.8-8.2,8.8-7.8v5.2C79.5,7.6,78.1,8.2,78.1,10.3z"
			/>
		<path class="st0" d="M82.1,19.4c0-5.4,4.3-9.6,9.6-9.6c5.3,0,9.6,4.2,9.6,9.6S97,29,91.7,29S82.1,24.8,82.1,19.4z M95.9,19.4
			c0-2.6-1.8-4.3-4.2-4.3c-2.4,0-4.2,1.7-4.2,4.3s1.8,4.3,4.2,4.3S95.9,22,95.9,19.4z"/>
		<path class="st0" d="M104.5,1.9h5.5v26.6h-5.5V1.9z"/>
		<path class="st0" d="M113.4,5.4c0-1.8,1.5-3.3,3.3-3.3s3.3,1.5,3.3,3.3s-1.5,3.3-3.3,3.3S113.4,7.2,113.4,5.4z M113.9,10.3h5.5
			v18.2h-5.5V10.3z"/>
		<path class="st0" d="M122.5,19.4c0-5.4,4.3-9.6,9.6-9.6s9.6,4.2,9.6,9.6s-4.3,9.6-9.6,9.6S122.5,24.8,122.5,19.4z M136.3,19.4
			c0-2.6-1.8-4.3-4.2-4.3s-4.2,1.7-4.2,4.3s1.8,4.3,4.2,4.3S136.3,22,136.3,19.4z"/>
	</g>
	<circle class="st1" cx="148.1" cy="25.2" r="3.3"/>
</g>
</svg>
